<?xml version="1.0" standalone="no"?>
<!DOCTYPE svg PUBLIC "-//W3C//DTD SVG 20010904//EN"
 "http://www.w3.org/TR/2001/REC-SVG-20010904/DTD/svg10.dtd">
<svg version="1.0" xmlns="http://www.w3.org/2000/svg"
 width="208.000000pt" height="300.000000pt" viewBox="0 0 208.000000 300.000000"
 preserveAspectRatio="xMidYMid meet">

<g transform="translate(0.000000,300.000000) scale(0.100000,-0.100000)"
fill="#000000" stroke="none">
<path d="M578 2988 c-54 -14 -123 -79 -145 -136 -27 -72 -23 -200 11 -337 16
-60 75 -253 131 -428 57 -175 107 -332 110 -348 l7 -30 -42 21 c-107 54 -208
31 -305 -71 -61 -63 -94 -126 -95 -176 0 -17 12 -64 26 -105 14 -40 28 -80 30
-89 4 -12 -9 -21 -53 -37 -178 -65 -248 -175 -247 -392 1 -175 48 -317 153
-458 215 -289 546 -430 919 -394 143 14 251 41 360 92 253 119 449 326 552
586 120 299 118 749 -3 908 -35 46 -110 93 -177 113 -30 8 -56 16 -57 18 -2 1
15 53 38 116 162 452 228 676 236 804 6 92 -5 142 -45 206 -36 56 -85 81 -167
87 -54 3 -64 1 -102 -27 -115 -84 -264 -375 -428 -836 -31 -88 -58 -161 -60
-163 -1 -2 -15 34 -30 80 -147 449 -306 805 -412 927 -69 79 -112 94 -205 69z
m124 -155 c14 -14 40 -51 56 -82 36 -68 337 -909 328 -918 -3 -3 -38 -1 -78 5
-78 12 -155 4 -168 -18 -8 -14 -36 54 -135 330 -184 512 -205 661 -102 705 38
17 63 11 99 -22z m1158 -61 c41 -42 46 -84 20 -188 -35 -145 -257 -795 -278
-816 -6 -6 -239 29 -251 38 -4 3 208 604 255 722 68 170 143 272 200 272 15 0
38 -12 54 -28z m-474 -1092 c260 -44 452 -117 500 -190 35 -52 47 -135 47
-305 -1 -296 -82 -535 -247 -724 -187 -215 -399 -312 -681 -313 -265 0 -468
82 -651 266 -223 223 -282 521 -133 663 33 31 76 53 103 53 63 0 318 -297 362
-422 17 -48 13 -66 -22 -99 -73 -68 -199 8 -329 198 -28 40 -53 73 -57 73 -29
0 -30 -160 -1 -215 48 -93 158 -196 251 -236 175 -76 334 21 320 195 l-4 54
37 -5 c21 -3 51 -1 67 5 l29 10 11 -102 c15 -141 56 -227 123 -262 33 -17 69
-18 69 -3 0 6 -14 65 -31 132 -41 160 -38 231 15 343 86 182 198 289 381 365
153 63 177 88 134 143 -20 25 -23 26 -139 26 -240 0 -458 37 -553 94 -109 66
-134 230 -42 273 41 19 283 10 441 -17z m-785 -100 c99 -28 270 -283 358 -533
38 -109 40 -149 7 -182 -36 -36 -67 -40 -139 -16 -53 18 -75 33 -124 84 -174
181 -313 441 -284 530 15 46 101 126 136 127 6 0 26 -5 46 -10z m627 -367 c40
-3 75 -9 77 -14 3 -4 -16 -23 -43 -42 -26 -19 -73 -62 -104 -95 -58 -60 -68
-65 -68 -29 0 11 -18 65 -40 119 -22 55 -40 101 -40 102 0 1 33 -6 73 -16 39
-10 105 -21 145 -25z"/>
</g>
</svg>
